# xmcd CD database file
# Copyright (C) 1993-1998 Ti Kan
#
# Track frame offsets:
#	150
#	13280
#	34707
#	58020
#	74737
#	83702
#	107117
#	123227
#	138297
#	160355
#	178645
#	190090
#	205585
#	217487
#	235347
#	248557
#
# Disc length: 3613 seconds
#
# Revision: 1
# Processed by: cddbd v1.4b41PL1 Copyright (c) Steve Scherf et al.
# Submitted via: CDValet v3.31 - Copyright (c) 1997 Greg Leichner
#
DISCID=e90e1b10
DTITLE=Backsliders - Wide Open
DYEAR=1900
DGENRE=
TTITLE0=Walking on the cracks
TTITLE1=Light on tonight
TTITLE2=I just keep on drinking
TTITLE3=Two on a lake
TTITLE4=Pthick chicken
TTITLE5=Down by the riverbed
TTITLE6=I hate it
TTITLE7=Spanish Johnny
TTITLE8=Keep your lamp trimmed and burning
TTITLE9=Hoodoo city
TTITLE10=Fannin street
TTITLE11=Back to Beppu
TTITLE12=Warm it up to me
TTITLE13=Shetland pony
TTITLE14=Last fair deal
TTITLE15=You three
EXTD=
EXTT0=
EXTT1=
EXTT2=
EXTT3=
EXTT4=
EXTT5=
EXTT6=
EXTT7=
EXTT8=
EXTT9=
EXTT10=
EXTT11=
EXTT12=
EXTT13=
EXTT14=
EXTT15=
PLAYORDER=
